<!--?xml version="1.0" encoding="utf-8"?-->
<!-- Generator: Adobe Illustrator 21.0.0, SVG Export Plug-In . SVG Version: 6.00 Build 0)  -->
<svg version="1.1" id="Layer_1" xmlns="http://www.w3.org/2000/svg" xmlns:xlink="http://www.w3.org/1999/xlink" x="0px" y="0px" viewBox="0 0 360 448" style="" xml:space="preserve">
<style type="text/css">
	.st0{fill:#f2f1f0;stroke:#f2f1f0;stroke-width:5;stroke-linecap:round;stroke-linejoin:round;stroke-miterlimit:10;}
</style>
<g>
	<g>
		<path class="st0 shell_0" d="M192.5,266.7c24.9,0,24.8,0,36.7-21.1c6.2-11,12.1-22.2,19.2-32.6c5.7-8.2,4.1-15.6,0-22.9
			c-8.3-14.8-17.4-29.1-25.7-43.9c-3.4-6.1-7.3-9.3-14.8-9.1c-9.3,0.2-46.6,0.2-55.9,0c-7.5-0.2-11.4,3-14.8,9.1
			c-8.3,14.8-17.3,29.1-25.7,43.9c-4.2,7.4-5.7,14.7,0,22.9c7.2,10.3,13,21.6,19.2,32.6c11.9,21.1,11.8,21.2,36.7,21.1
			c3.9,0,7.8,0,11.7,0c0,0,1.7,0,1.7,0C184.7,266.7,188.6,266.7,192.5,266.7z"></path>
		<g>
			<path class="st0 shell_1" d="M91.9,181.8c8.8-16.7,18-33.2,27.3-49.6c2.6-4.7,2.9-8.6,0-13.5c-11-18.8-21.8-37.8-32.4-56.9
				c-2.8-5.1-5.2-5.6-10.1-2.9C56.3,70,35.8,80.9,15,91.6c-7.5,3.8-10.9,9.3-10,17.5c2.7,25.5,5.4,50.9,8.5,76.4
				c0.2,1.8,3.5,4.4,5.4,4.5c13,0.4,50.9,0.6,56.6,1.2C83.5,191.8,88.2,188.7,91.9,181.8z"></path>
			<path class="st0 shell_2" d="M139.3,107.8c2.8,5.1,6.5,6.3,11.8,6.2c4.8-0.1,53-0.1,57.8,0c5.3,0.1,9-1.1,11.8-6.2
				c10.6-19.2,21.5-38.1,32.5-57c2.5-4.2,2.4-6.8-2.2-9.2c-21.1-11-42.2-22.2-63.2-33.4C185.1,6.7,182.6,6,180,6v0l0,0l0,0v0
				c-2.6,0-5.1,0.7-7.8,2.1c-21,11.2-42.1,22.4-63.2,33.4c-4.7,2.4-4.7,5-2.2,9.2C117.8,69.6,128.7,88.6,139.3,107.8z"></path>
			<path class="st0 shell_3" d="M119.6,273.1c-9.3-17.5-19-34.8-28.9-51.9c-1.7-2.9-5.5-6.5-8.5-6.5c-20.1-0.6-40.3-0.3-61.1-0.3
				c11.8,49,33.4,91.9,62.2,133.8c13.1-22.8,25.4-44.1,37.3-65.6C121.8,280.2,121,275.7,119.6,273.1z"></path>
			<path class="st0 shell_4" d="M345,91.6c-20.7-10.6-41.3-21.6-61.7-32.7c-5-2.7-7.3-2.2-10.1,2.9c-10.5,19.1-21.3,38.1-32.4,56.9
				c-2.9,4.9-2.6,8.8,0,13.5c9.3,16.5,18.5,32.9,27.3,49.6c3.6,6.9,8.3,10,16.2,9.2c5.8-0.6,43.6-0.8,56.6-1.2
				c1.9-0.1,5.2-2.7,5.4-4.5c3.1-25.4,5.8-50.9,8.5-76.4C355.8,100.8,352.4,95.4,345,91.6z"></path>
			<path class="st0 shell_5" d="M277.8,214.7c-2.9,0.1-6.8,3.6-8.5,6.5c-10,17.1-19.6,34.4-28.9,51.9c-1.4,2.6-2.2,7.1-0.9,9.4
				c11.8,21.5,24.2,42.8,37.3,65.6c28.8-41.9,50.3-84.8,62.2-133.8C318.1,214.4,297.9,214.1,277.8,214.7z"></path>
			<path class="st0 shell_6" d="M220.7,295.9c-2.5-4.4-5.6-6-10.5-5.9c-10.1,0.1-50.3,0.1-60.3,0c-4.9,0-8,1.5-10.5,5.9
				c-12.4,22-24.9,44-37.6,65.8c-3,5.1-2.2,8.5,1.5,12.7c19.8,22.8,41.4,43.8,65.4,62.3c4.6,3.5,8,5.3,11.4,5.3v0l0,0l0,0l0,0
				c3.4,0,6.8-1.7,11.4-5.3c24-18.4,45.6-39.4,65.4-62.3c3.7-4.3,4.5-7.7,1.5-12.7C245.5,339.9,233,317.9,220.7,295.9z"></path>
		</g>
	</g>
</g>
<style>
	.shell_0{
	fill-opacity:0;
	stroke-dasharray:438 440;
	stroke-dashoffset:439;
	animation:shell_draw 2000ms ease-in-out 0ms forwards, shell_fill 1000ms linear 2000ms forwards;
	}
	.shell_1{
	fill-opacity:0;
	stroke-dasharray:402 404;
	stroke-dashoffset:403;
	animation:shell_draw 2000ms ease-in-out 0ms forwards, shell_fill 1000ms linear 2000ms forwards;
	}
	.shell_2{
	fill-opacity:0;
	stroke-dasharray:400 402;
	stroke-dashoffset:401;
	animation:shell_draw 2000ms ease-in-out 0ms forwards, shell_fill 1000ms linear 2000ms forwards;
	}
	.shell_3{
	fill-opacity:0;
	stroke-dasharray:366 368;
	stroke-dashoffset:367;
	animation:shell_draw 2000ms ease-in-out 0ms forwards, shell_fill 1000ms linear 2000ms forwards;
	}
	.shell_4{
	fill-opacity:0;
	stroke-dasharray:402 404;
	stroke-dashoffset:403;
	animation:shell_draw 2000ms ease-in-out 0ms forwards, shell_fill 1000ms linear 2000ms forwards;
	}
	.shell_5{
	fill-opacity:0;
	stroke-dasharray:366 368;
	stroke-dashoffset:367;
	animation:shell_draw 2000ms ease-in-out 0ms forwards, shell_fill 1000ms linear 2000ms forwards;
	}
	.shell_6{
	fill-opacity:0;
	stroke-dasharray:473 475;
	stroke-dashoffset:474;
	animation:shell_draw 2000ms ease-in-out 0ms forwards, shell_fill 1000ms linear 2000ms forwards;
	}

	@keyframes shell_draw {
		100% {
			stroke-dashoffset:0;
		}
	}

	@keyframes shell_fade {
		0% {
			stroke-opacity:1;
		}
		93.54838709677419% {
			stroke-opacity:1;
		}
		100% {
			stroke-opacity:0;
		}
	}

	@keyframes shell_fill {
	  from { 
	  	fill-opacity: 0;
	  }
	  to {
	  	fill-opacity: 1;
	  }
	}
</style>
</svg>
